<svg xmlns="http://www.w3.org/2000/svg" version="1.1" xmlns:xlink="http://www.w3.org/1999/xlink" xmlns:svgjs="http://svgjs.dev/svgjs" width="1000" height="623" viewBox="0 0 1000 623"><g transform="matrix(1,0,0,1,-0.6060606060606233,0.2522267206477409)"><svg viewBox="0 0 396 247" data-background-color="#8dbdff" preserveAspectRatio="xMidYMid meet" height="623" width="1000" xmlns="http://www.w3.org/2000/svg" xmlns:xlink="http://www.w3.org/1999/xlink"><g id="tight-bounds" transform="matrix(1,0,0,1,0.2400000000000091,-0.09999999999999432)"><svg viewBox="0 0 395.52 247.2" height="247.2" width="395.52"><g><svg></svg></g><g><svg viewBox="0 0 395.52 247.2" height="247.2" width="395.52"><g transform="matrix(1,0,0,1,75.54432,53.99060808608762)"><svg viewBox="0 0 244.43135999999998 139.21878382782475" height="139.21878382782475" width="244.43135999999998"><g><svg viewBox="0 0 244.43135999999998 139.21878382782475" height="139.21878382782475" width="244.43135999999998"><g><svg viewBox="0 0 244.43135999999998 139.21878382782475" height="139.21878382782475" width="244.43135999999998"><g><svg viewBox="0 0 244.43135999999998 139.21878382782475" height="139.21878382782475" width="244.43135999999998"><g id="textblocktransform"><svg viewBox="0 0 244.43135999999998 139.21878382782475" height="139.21878382782475" width="244.43135999999998" id="textblock"><g><svg viewBox="0 0 244.43135999999998 139.21878382782475" height="139.21878382782475" width="244.43135999999998"><g transform="matrix(1,0,0,1,0,0)"><svg width="244.43135999999998" viewBox="4.449999809265137 -36.650001525878906 65.05000305175781 37.05000305175781" height="139.21878382782475" data-palette-color="#0080ff"><path d="M9.9 0L4.45 0 4.45-36.25 9.9-36.25 9.9-20.85 28.05-20.85 28.05-36.25 33.55-36.25Q33.55-35.6 33.55-33.83 33.55-32.05 33.55-29.6 33.55-27.15 33.55-24.18 33.55-21.2 33.52-18.13 33.5-15.05 33.5-12.08 33.5-9.1 33.5-6.65 33.5-4.2 33.5-2.43 33.5-0.65 33.5 0L33.5 0 28.05 0 28.05-15.65 9.9-15.65 9.9 0ZM57.4-17.35L69.5-17.35 69.5-2.15Q67.4-0.95 64.5-0.28 61.6 0.4 58.6 0.4L58.6 0.4Q54.3 0.4 50.87-0.95 47.45-2.3 45-4.67 42.55-7.05 41.25-10.3 39.95-13.55 39.95-17.4L39.95-17.4Q39.95-21.65 41.47-25.18 43-28.7 45.62-31.25 48.25-33.8 51.67-35.23 55.1-36.65 58.95-36.65L58.95-36.65Q61.55-36.65 64.4-35.98 67.25-35.3 69.35-34.05L69.35-34.05 66.7-29.6Q65.95-30.05 64.97-30.4 64-30.75 62.95-31 61.9-31.25 60.85-31.38 59.8-31.5 58.85-31.5L58.85-31.5Q56.2-31.5 53.75-30.45 51.3-29.4 49.45-27.55 47.6-25.7 46.5-23.2 45.4-20.7 45.4-17.8L45.4-17.8Q45.4-15.15 46.37-12.8 47.35-10.45 49.1-8.65 50.85-6.85 53.3-5.8 55.75-4.75 58.7-4.75L58.7-4.75Q59.85-4.75 61.42-4.98 63-5.2 64.45-5.75L64.45-5.75 64.45-12.65 57.4-12.65 57.4-17.35Z" opacity="1" transform="matrix(1,0,0,1,0,0)" fill="#0080ff" class="wordmark-text-0" data-fill-palette-color="primary" id="text-0"></path></svg></g></svg></g></svg></g></svg></g></svg></g></svg></g></svg></g><path d="M250.949 47.991L250.949 3.556 10.861 3.556 10.861 243.644 250.949 243.644 250.949 199.209 238.394 199.209 238.394 231.089 23.416 231.089 23.416 16.111 238.394 16.111 238.394 47.991Z" fill="#0080ff" stroke="transparent" data-fill-palette-color="primary"></path></svg></g><defs></defs></svg><rect width="395.52" height="247.2" fill="none" stroke="none" visibility="hidden"></rect></g></svg></g></svg>